<?xml version="1.0" encoding="utf-8"?>
<!-- Generator: Adobe Illustrator 22.1.0, SVG Export Plug-In . SVG Version: 6.00 Build 0)  -->
<svg version="1.1" xmlns="http://www.w3.org/2000/svg" xmlns:xlink="http://www.w3.org/1999/xlink" x="0px" y="0px"
	 viewBox="0 0 283.5 283.5" style="enable-background:new 0 0 283.5 283.5;" xml:space="preserve">
<style type="text/css">
	.st0{display:none;}
	.st1{display:inline;}
	.st2{fill:#0000FF;}
	.st3{fill:#FFFFFF;}
</style>
<g id="Layer_10" class="st0">
	
		<image style="display:inline;overflow:visible;" width="1024" height="1024" xlink:href="../../../Users/mlg/Downloads/DALL·E 2023-09-06 14.48.53 - A rocket ship taking off over a document in the style of a basic logo.png"  transform="matrix(0.2768 0 0 0.2768 0 0)">
	</image>
	<g id="Layer_2" class="st1">
	</g>
</g>
<g id="Layer_1">
	<polyline class="st2" points="46.8,93.8 91,52.5 214.7,52.5 214.8,238.2 46.8,238.2 	"/>
	<polygon class="st3" points="112.6,194.9 201.5,194.9 201.5,201.1 102.8,201.1 	"/>
	<path class="st3" d="M92.3,206.4c36.3,0,72.6,0,108.9,0c0.1,2.1,0.3,4.2,0.4,6.3c-42.1,0.1-84.3,0.1-126.4,0.2
		c-1,1.8-2,3.5-2.9,5.3c43.1-0.1,86.1-0.1,129.2-0.2c0,2.6,0,5.1,0,7.7c-47.5,0-95,0-142.6,0c0.1-10.4,1.5-60.6,35.3-81.1
		c3.3-2,7-3.8,11.2-5.2c-5.5,6.4-10.9,12.8-16.4,19.1c2.3-0.2,4.6-0.3,6.9-0.5c-6.1,6.1-11,12.5-15,18.9c-0.1,0.2-0.3,0.4-0.4,0.6
		c4.4-3.7,9.4-7.3,15-10.5c0.6-0.3,1.1-0.6,1.7-1c0.2,0.4,0.5,0.7,0.7,1.1c-4.5,3.4-10.2,8.4-15.7,15.2c-5.1,6.3-8.5,12.4-10.9,17.3
		c3.5-2.8,7.7-5.7,12.7-8.5c10-5.5,19.4-8.1,26.4-9.5c-1.2,1.2-2.6,2.5-4.3,3.8c-2,1.5-3.8,2.7-5.5,3.6c0.4,0.2,1,0.4,1.8,0.6
		c2.7,0.5,5-0.9,5.8-1.4c2.7-1.5,7.9-3.5,15.9-6.1c-2,2.2-5,5.1-9.2,8.1c-4.6,3.3-8.5,5-13.7,7.4c-9.5,4.3-14.2,6.4-17.2,7.4
		c-0.5,0.2-2,0.7-3.8,1.9c-1.4,1-2.3,2-2.9,2.8c1.8,0,3.9-0.1,6.3-0.5c3.1-0.5,5.7-1.4,7.8-2.3C91.6,206.5,92,206.5,92.3,206.4z"/>
	<path class="st3" d="M97.9,165c0.8-0.8,1.4-1.4,1.7-1.7c1.8-2,2.7-3,3.1-3.4c1.3-1.6,2.2-3.8,4-8c1.4-3.4,1.6-4.1,2.6-4.8
		c1.7-1.2,4.1-0.9,5.6-0.5c0.5-1.2,1.2-3.2,2.1-5.5c0.5-1.5,0.8-2.5,1-2.8c1.7-4.9,4.9-10.2,5.3-10.9c2.4-4,4.6-6.6,7.7-10.2
		c2.2-2.6,5.8-6.7,10.6-11.1c4.1-3.7,10.6-9.5,20.7-14.5c0,0,10.5-5.2,27.7-7.8c1-0.1,1.7-0.2,2.3-0.2c1.8,0,3.4,0,4.8,1
		c0.6,0.4,1,1,1.5,1.5c0.1,0.1,0.9,1.2,1.4,2.5c0.7,2,0.5,3.8,0.4,4.9c-0.7,5.3-1.1,8-1.7,9.9c-3.3,10.4-9.3,19.6-9.3,19.6
		c-1.9,2.9-7.1,10.6-16.1,18.6c-4.4,4-9.7,8.6-17.9,12.6c-6.8,3.3-12.9,4.8-17.2,5.6c2.7-0.4,5.6-0.9,8.7-1.6
		c2.9-0.7,5.6-1.4,8.1-2.3c0.3,3.1,0.3,5.6,0.2,7.6c-0.1,2.3-0.2,4.1-0.9,6.3c-1.1,3.6-2.8,6-3.3,6.6c-1.6,2.1-3.2,3.3-4.6,4.3
		c-2.7,2-5,3-8.9,4.6c-3.4,1.4-6.2,2.3-7.9,2.8c-1.9,0.5-3.6,0.9-4.9,1.2c-0.4-0.5-0.8-1-1.2-1.6c0.6-0.8,1.5-1.9,2.4-3.3
		c1.8-2.5,3.9-5.5,5.8-9.9c0.6-1.3,1.4-3.9,3-9c0.2-0.6,0.5-1.7,0.6-3.1c0.1-0.7,0-1.2,0-1.6c-0.5-0.4-1.1-0.8-1.9-1.3
		c-0.9-0.5-1.4-0.8-2.1-1c-0.5-0.1-1.3-0.2-2.4,0.1c0,1.8,0,3.5,0,5.3c-0.3,0.5-0.8,1.3-1.6,2.1c-0.7,0.7-1.6,1.2-3.5,2.3
		c-2.6,1.6-3.2,1.9-4.2,2.6c-0.8,0.6-1.5,1.2-1.9,1.6c-0.1-0.6-0.2-1.4-0.2-2.3c0.1-3.3,1.9-5.5,1.6-5.7c-0.2-0.1-1,1-2.2,2.1
		c-0.6,0.6-1.6,1.4-4.8,2.9c-4.8,2.3-6.7,2.3-9.8,4.8c-0.5,0.4-0.8,0.7-1,0.9c-0.4,0.3-0.9,0.6-1.3,0.9c0.8-1,1.9-2.6,3.3-4.4
		c1.9-2.6,2.9-3.9,3.2-4.2c3-3.8,4.5-5.7,6.1-7.2c0.5-0.5,1.8-1.6,2.9-3.6c0.3-0.5,0.4-0.9,0.6-1.2c-1,0.6-2,1.3-3,1.9
		c-2,1.2-3.4,2.1-3.8,2.3c-1.8,1.1-5.2,3.3-12.5,8.3c-0.3-0.3-0.7-0.7-1-1c0.5-0.3,1.1-0.8,1.8-1.4C97.6,165.2,97.8,165,97.9,165z"
		/>
	<path class="st3" d="M93,137.1c1.2-2.7,3.1-6.6,6.4-10.8c3.7-4.8,6.9-8.8,12.6-10.6c1.2-0.4,7-2.1,12.7,0.7
		c1.5,0.7,2.6,1.6,3.3,2.3c-1.7,2.3-3.5,4.9-5.3,7.9c-2.3,3.8-4,7.5-5.3,10.7c-2.2-0.7-4.8-1.4-7.8-1.8
		C102.5,134.6,96.7,135.9,93,137.1z"/>
	<g id="Layer_3">
	</g>
	<g id="Layer_4">
		<path class="st3" d="M46.9,163.3c6.7-2.6,13.4-5.3,20.1-8c8.7-3.5,17.3-7.1,25.8-10.7c-7.6,4.1-15.2,8.2-22.8,12.4
			c-7.8,4.3-15.6,8.5-23.4,12.8C46.8,167.6,46.9,165.4,46.9,163.3z"/>
	</g>
	<g id="Layer_5">
		<path class="st3" d="M47,179.1c4.5-2.1,9-4.2,13.5-6.4c4.3-2,8.5-4.1,12.6-6.1c-0.7,1.2-1.4,2.4-2,3.6c-4.1,2.9-8.2,5.8-12.4,8.7
			c-4,2.7-8,5.4-11.9,8.1c0-2.6,0-5.2,0-7.9C46.9,179.2,46.9,179.1,47,179.1z"/>
	</g>
	<g id="Layer_6">
	</g>
	<g id="Layer_7">
		<path class="st3" d="M58.6,90.4c9.1-2.9,18.3-5.8,27.4-8.8c0-4.1,0.3-7.5,0.6-10.1c0.9-6.6,2.3-9.9,2.6-10.7
			c0.7-1.5,1.3-2.7,1.8-3.5c0,10.9,0,21.8,0,32.7C80.3,90.2,69.5,90.3,58.6,90.4z"/>
	</g>
	<g id="Layer_8">
	</g>
	<path class="st2" d="M170.3,118.6L170.3,118.6c-5,0-9.1-4.1-9.1-9.1v0c0-5,4.1-9.1,9.1-9.1h0c5,0,9.1,4.1,9.1,9.1v0
		C179.4,114.5,175.3,118.6,170.3,118.6z"/>
	<path class="st2" d="M159.3,120.2c-4.6,4.5-11.3,11.1-19.4,19.1c-19.4,19-22.8,22.3-23,22.2c-0.2-0.2,4.9-5.8,9.5-10.5
		c5.2-5.3,8.9-8.7,18.9-17.9C148.1,130.4,153,126,159.3,120.2z"/>
	<g id="Layer_9">
		<polygon class="st3" points="202,77.2 197.8,74.1 193.5,77.1 195.2,72.1 191,68.9 196.2,69 197.9,64 199.5,69.1 204.7,69.2 
			200.4,72.2 		"/>
	</g>
</g>
</svg>
