<?xml version="1.0" encoding="utf-8"?>
<!-- Generator: Adobe Illustrator 22.1.0, SVG Export Plug-In . SVG Version: 6.00 Build 0)  -->
<svg version="1.1" xmlns="http://www.w3.org/2000/svg" xmlns:xlink="http://www.w3.org/1999/xlink" x="0px" y="0px"
	 viewBox="0 0 283.5 283.5" style="enable-background:new 0 0 283.5 283.5;" xml:space="preserve">
<style type="text/css">
	.st0{fill:none;stroke:#3D64A9;stroke-width:9;stroke-miterlimit:10;}
	.st1{fill:#3D64A9;}
	.st2{fill:none;stroke:#3D64A9;stroke-width:8;stroke-miterlimit:10;}
	.st3{fill:none;stroke:#3D64A9;stroke-width:6;stroke-miterlimit:10;}
	.st4{fill:none;stroke:#3D64A9;stroke-width:7;stroke-miterlimit:10;}
	.st5{fill:none;stroke:#3D64A9;stroke-width:5;stroke-miterlimit:10;}
</style>
<g id="Layer_1">
	
		<image style="display:none;overflow:visible;" width="1024" height="1024" xlink:href="../../../Users/mlg/Downloads/DALL·E 2023-09-06 16.49.48 - A speedometer at maximum on a document icon, in the style of a vector logo that is mostly blue.png"  transform="matrix(0.1846 0 0 0.1846 45.8701 39.3333)">
	</image>
</g>
<g id="Layer_2">
	<path class="st0" d="M22.4,271.7v-260c56.3,0,112.6,0,168.9,0c1.3,0,2.5,0,3.8,0c1,0,2,0,3,0c21.6,24.9,43.2,49.9,64.8,74.8v185.2
		H22.4z"/>
	<path class="st0" d="M195.1,59.6"/>
	<path class="st0" d="M191.1,13.7c-0.1,13.2-0.2,26.5-0.4,39.7c0,1.3,0.8,19.6,15.3,27.8c6.3,3.6,41.2,3.5,53.8,3.5"/>
	
		<ellipse transform="matrix(0.9732 -0.2298 0.2298 0.9732 -34.0983 36.9381)" class="st1" cx="141.6" cy="164.9" rx="16.6" ry="16.6"/>
	<path class="st2" d="M67.2,197.2c-2.5-5.5-5.4-13.7-6.5-24.1c-0.5-4.9-2.3-26,9.7-47.6C89,92,125,85.3,128.5,84.7
		c4.9-0.8,37.8-5.9,66.1,17.3c2.2,1.8,31.3,26.5,29.9,65.2c-0.5,13.6-4.6,24.3-7.7,30.9"/>
	<path class="st3" d="M89.5,163.4c0.1-4.9,1-14,6.2-23.7c8.1-15.1,21.1-21.5,24.9-23.2c2.4-1.1,13.8-6,28.8-4.2
		c4.3,0.5,7.8,1.5,10.3,2.3"/>
	<polyline class="st4" points="215.5,128.6 140.4,153 146.5,170.6 146.8,172.4 218.7,135.7 	"/>
	<line class="st5" x1="49.9" y1="223.4" x2="233.2" y2="223.4"/>
	<line class="st5" x1="49.9" y1="237.7" x2="233.2" y2="237.7"/>
	<line class="st5" x1="49.9" y1="252" x2="233.2" y2="252"/>
</g>
</svg>
